# Blender v2.79 (sub 0) OBJ File: ''
# www.blender.org
mtllib m9999B1A18.mtl
o mesh0
v 8.273422 -9.423594 -52.574398
v 3.639127 -9.423595 -44.475060
v 3.639127 -9.423594 -52.574398
v 8.273422 -9.423595 -44.475060
v 3.639127 -9.423596 -41.319885
v 8.273422 -9.423596 -41.319885
v 12.907718 -9.423595 -44.475060
v 12.907718 -9.423596 -41.319885
v 17.542013 -9.423595 -44.475060
v 17.542013 -9.423596 -41.319885
v 22.176308 -9.423595 -44.475060
v 22.176308 -9.423596 -41.319885
v 22.176308 -9.423594 -52.574398
v 17.542013 -9.423594 -52.574398
v 14.769127 -9.423598 -45.093662
v 14.769125 -9.423596 -46.329933
v 12.873329 -9.423594 -52.342079
v 12.866898 -9.423595 -46.329933
v 12.866898 -9.423596 -45.093658
vt 0.750000 -0.750000
vt 1.000000 -0.750000
vt 1.000000 -0.500000
vt 0.750000 -0.500000
vt 1.000000 -0.500000
vt 0.750000 -0.500000
vt 0.500000 -0.500000
vt 0.500000 -0.500000
vt 0.250000 -0.500000
vt 0.250000 -0.500000
vt 0.000000 -0.500000
vt 0.000000 -0.500000
vt 0.000000 -0.750000
vt 0.250000 -0.750000
vt 0.375000 -0.625000
vt 0.375000 -0.750000
vt 0.500000 -0.789063
vt 0.500000 -0.750000
vt 0.500000 -0.625000
vn -0.7418 0.0111 0.6705
vn 0.7071 0.0111 0.7070
vn 0.7071 0.0111 -0.7070
vn 0.7070 0.0111 0.7071
vn -0.7070 0.0111 -0.7071
vn -0.7070 0.0111 0.7071
vn 0.1865 0.0111 -0.9824
vn -0.7071 0.0111 -0.7070
vn -0.6711 0.0111 0.7413
vn -0.7076 0.0111 0.7065
usemtl m0010B0A18_0
s 1
f 1/1/1 3/2/2 2/3/3
f 2/3/3 4/4/4 1/1/1
f 4/4/4 2/3/3 5/5/5
f 5/5/5 6/6/6 4/4/4
f 7/7/7 4/4/4 6/6/6
f 6/6/6 8/8/6 7/7/7
f 9/9/7 7/7/7 8/8/6
f 8/8/6 10/10/6 9/9/7
f 11/11/3 9/9/7 10/10/6
f 10/10/6 12/12/2 11/11/3
f 9/9/7 11/11/3 13/13/8
f 13/13/8 14/14/9 9/9/7
f 15/15/2 9/9/7 14/14/9
f 14/14/9 16/16/8 15/15/2
f 16/16/8 14/14/9 17/17/10
f 17/17/10 18/18/2 16/16/8
f 18/18/2 17/17/10 1/1/1
f 1/1/1 4/4/4 18/18/2
f 19/19/5 18/18/2 4/4/4
f 4/4/4 7/7/7 19/19/5
f 15/15/2 19/19/5 7/7/7
f 7/7/7 9/9/7 15/15/2
