# Blender v2.79 (sub 0) OBJ File: ''
# www.blender.org
mtllib m9010B1A15.mtl
o mesh0
v -145.728271 348.049530 450.460083
v -117.552818 322.868195 465.781738
v -117.552826 349.275238 452.990479
v -145.728271 321.642487 463.251312
v -173.903748 346.823883 447.929688
v -117.552818 296.461060 478.572906
v -173.903748 320.416840 460.720886
v -202.079224 345.598206 445.399323
v -145.728271 295.235413 476.042542
v -117.552788 270.054016 491.364044
v -145.728287 268.828369 488.833771
v -117.552788 243.647003 504.155273
v -145.728271 242.421341 501.624969
v -173.903748 267.602692 486.303314
v -173.903748 241.195663 499.094482
v -173.903778 294.009735 473.512115
v -202.079239 319.191132 458.190491
v -230.254700 344.372528 442.868896
v -230.254700 317.965454 455.660065
v -259.771851 343.088501 440.218048
v -202.079208 292.784088 470.981750
v -202.079239 266.377014 483.772949
v -202.079224 239.970016 496.564117
v -230.254700 265.151337 481.242523
v -230.254730 238.744308 494.033691
v -230.254700 291.558380 468.451324
v -259.771912 316.681396 453.009308
v -289.289032 341.804443 437.567200
v -289.289124 315.397400 450.358337
v -318.806274 340.520386 434.916229
v -259.771912 290.274414 465.800537
v -259.771912 263.867279 478.591675
v -259.771912 237.460266 491.382904
v -289.289124 262.583252 475.940796
v -289.289093 236.176208 488.731964
v -289.289093 288.990326 463.149567
v -318.806305 314.113342 447.707428
v -346.981750 339.294739 432.385986
v -346.981781 312.887665 445.177185
v -375.157227 338.069031 429.855469
v -375.157196 311.661987 442.646759
v -346.981781 286.480591 457.968384
v -375.157196 285.254944 455.437988
v -318.806305 287.706268 460.498657
v -318.806274 261.299225 473.289917
v -318.806305 234.892166 486.081085
v -346.981750 260.073547 470.759583
v -375.157196 258.847839 468.229156
v -346.981750 233.666489 483.550751
v -375.157257 232.440811 481.020325
v -145.728271 348.049530 445.041107
v -117.552803 322.868195 460.362732
v -117.552803 349.275238 447.571533
v -145.728271 321.642487 457.832275
v -173.903748 346.823883 442.510773
v -117.552803 296.461060 473.153961
v -173.903748 320.416840 455.301910
v -202.079224 345.598206 439.980316
v -145.728271 295.235413 470.623596
v -117.552841 270.054016 485.945160
v -145.728271 268.828369 483.414734
v -117.552841 243.647003 498.736328
v -145.728287 242.421341 496.206055
v -173.903748 267.602692 480.884430
v -173.903793 241.195663 493.675476
v -173.903763 294.009766 468.093170
v -202.079224 319.191132 452.771576
v -230.254684 344.372528 437.449982
v -230.254700 317.965454 450.241119
v -259.771912 343.088501 434.799103
v -202.079208 292.784119 465.562744
v -202.079224 266.377014 478.354004
v -202.079239 239.970016 491.145203
v -230.254700 265.151337 475.823578
v -230.254700 238.744308 488.614746
v -230.254700 291.558411 463.032349
v -259.771851 316.681396 447.590332
v -289.289032 341.804443 432.148224
v -289.289093 315.397400 444.939392
v -318.806274 340.520386 429.497284
v -259.771851 290.274414 460.381531
v -259.771851 263.867279 473.172699
v -259.771851 237.460266 485.963898
v -289.289093 262.583252 470.521759
v -289.289093 236.176208 483.312958
v -289.289093 288.990326 457.730560
v -318.806274 314.113342 442.288483
v -346.981659 339.294739 426.967010
v -346.981750 312.887665 439.758179
v -375.157196 338.069031 424.436584
v -375.157227 311.661987 437.227814
v -346.981781 286.480591 452.549408
v -375.157196 285.254944 450.019012
v -318.806305 287.706268 455.079651
v -318.806274 261.299255 467.870911
v -318.806274 234.892166 480.662079
v -346.981750 260.073578 465.340576
v -375.157227 258.847839 462.810181
v -346.981750 233.666489 478.131805
v -375.157227 232.440811 475.601379
vt 0.619141 -0.388672
vt 0.673828 -0.399414
vt 0.684570 -0.472656
vt 0.623047 -0.452148
vt 0.547852 -0.425781
vt 0.696289 -0.544922
vt 0.560547 -0.501953
vt 0.494141 -0.421875
vt 0.645508 -0.571289
vt 0.707031 -0.618164
vt 0.650391 -0.635742
vt 0.717773 -0.690430
vt 0.654297 -0.700195
vt 0.583984 -0.654297
vt 0.596680 -0.730469
vt 0.572266 -0.578125
vt 0.499023 -0.486328
vt 0.422852 -0.453125
vt 0.435547 -0.532227
vt 0.356445 -0.462891
vt 0.522461 -0.604492
vt 0.527344 -0.668945
vt 0.532227 -0.733398
vt 0.461914 -0.691406
vt 0.475586 -0.770508
vt 0.449219 -0.611328
vt 0.390625 -0.555664
vt 0.290039 -0.473633
vt 0.301758 -0.538086
vt 0.223633 -0.484375
vt 0.380859 -0.623047
vt 0.390625 -0.680664
vt 0.402344 -0.753906
vt 0.333984 -0.719727
vt 0.345703 -0.784180
vt 0.321289 -0.655273
vt 0.235352 -0.556641
vt 0.158203 -0.538086
vt 0.169922 -0.599609
vt 0.094727 -0.547852
vt 0.106445 -0.609375
vt 0.181641 -0.636719
vt 0.119141 -0.670898
vt 0.247070 -0.629883
vt 0.257813 -0.702148
vt 0.269531 -0.774414
vt 0.194336 -0.722656
vt 0.130859 -0.733398
vt 0.206055 -0.785156
vt 0.143555 -0.794922
vt 1.126953 -0.441406
vt 1.201172 -0.419922
vt 1.159180 -0.510742
vt 1.083008 -0.517578
vt 1.039063 -0.355469
vt 1.117188 -0.601563
vt 0.996094 -0.450195
vt 0.960938 -0.385742
vt 1.040039 -0.593750
vt 1.074219 -0.692383
vt 0.997070 -0.669922
vt 1.032227 -0.782227
vt 0.953125 -0.746094
vt 0.908203 -0.640625
vt 0.864258 -0.736328
vt 0.952148 -0.545898
vt 0.917969 -0.461914
vt 0.876953 -0.291016
vt 0.832031 -0.391602
vt 0.793945 -0.252930
vt 0.875000 -0.539063
vt 0.832031 -0.615234
vt 0.789063 -0.691406
vt 0.742188 -0.590820
vt 0.697266 -0.691406
vt 0.787109 -0.491211
vt 0.751953 -0.343750
vt 0.710938 -0.214844
vt 0.675781 -0.297852
vt 0.627930 -0.176758
vt 0.709961 -0.434570
vt 0.668945 -0.526367
vt 0.626953 -0.617188
vt 0.605469 -0.462891
vt 0.571289 -0.544922
vt 0.640625 -0.379883
vt 0.585938 -0.267578
vt 0.512695 -0.188477
vt 0.479492 -0.267578
vt 0.433594 -0.152344
vt 0.400391 -0.231445
vt 0.447266 -0.346680
vt 0.368164 -0.310547
vt 0.543945 -0.359375
vt 0.502930 -0.450195
vt 0.460938 -0.541016
vt 0.414063 -0.425781
vt 0.334961 -0.389648
vt 0.381836 -0.504883
vt 0.302734 -0.468750
vn -0.8416 0.2542 -0.4765
vn 0.4575 0.7000 -0.5484
vn 0.8878 -0.4563 0.0594
vn 0.4576 0.6999 -0.5484
vn -0.9007 -0.4016 -0.1654
vn -0.4113 -0.9020 0.1312
vn 0.3111 -0.9241 0.2220
vn -0.4112 -0.9021 0.1312
vn -0.4112 -0.9021 0.1313
vn 0.3324 -0.9169 0.2209
vn -0.8938 -0.4207 -0.1554
vn 0.3110 -0.9241 0.2220
vn 0.4575 0.6999 -0.5484
vn -0.8417 0.2540 -0.4764
usemtl m0030B1A13_0
s 1
f 1/1/1 3/2/2 2/3/3
f 2/3/3 4/4/4 1/1/1
f 5/5/1 1/1/1 4/4/4
f 6/6/3 4/4/4 2/3/3
f 5/5/1 4/4/4 7/7/4
f 7/7/4 8/8/1 5/5/1
f 9/9/5 7/7/4 4/4/4
f 4/4/4 6/6/3 9/9/5
f 10/10/3 9/9/5 6/6/3
f 11/11/4 9/9/5 10/10/3
f 10/10/3 12/12/6 11/11/4
f 13/13/1 11/11/4 12/12/6
f 11/11/4 13/13/1 14/14/7
f 14/14/7 9/9/5 11/11/4
f 14/14/7 13/13/1 15/15/1
f 9/9/5 14/14/7 16/16/8
f 16/16/8 7/7/4 9/9/5
f 7/7/4 16/16/8 17/17/7
f 17/17/7 8/8/1 7/7/4
f 18/18/1 8/8/1 17/17/7
f 17/17/7 19/19/4 18/18/1
f 20/20/1 18/18/1 19/19/4
f 21/21/5 19/19/4 17/17/7
f 17/17/7 16/16/8 21/21/5
f 14/14/7 21/21/5 16/16/8
f 22/22/4 21/21/5 14/14/7
f 14/14/7 15/15/1 22/22/4
f 23/23/1 22/22/4 15/15/1
f 22/22/4 23/23/1 24/24/7
f 24/24/7 21/21/5 22/22/4
f 24/24/7 23/23/1 25/25/1
f 21/21/5 24/24/7 26/26/9
f 26/26/9 19/19/4 21/21/5
f 19/19/4 26/26/9 27/27/10
f 27/27/10 20/20/1 19/19/4
f 28/28/1 20/20/1 27/27/10
f 27/27/10 29/29/4 28/28/1
f 30/30/1 28/28/1 29/29/4
f 31/31/11 29/29/4 27/27/10
f 27/27/10 26/26/9 31/31/11
f 24/24/7 31/31/11 26/26/9
f 32/32/4 31/31/11 24/24/7
f 24/24/7 25/25/1 32/32/4
f 33/33/1 32/32/4 25/25/1
f 34/34/10 32/32/4 33/33/1
f 33/33/1 35/35/1 34/34/10
f 32/32/4 34/34/10 36/36/11
f 36/36/11 31/31/11 32/32/4
f 29/29/4 31/31/11 36/36/11
f 36/36/11 37/37/10 29/29/4
f 30/30/1 29/29/4 37/37/10
f 37/37/10 38/38/1 30/30/1
f 38/38/1 37/37/10 39/39/4
f 39/39/4 40/40/6 38/38/1
f 41/41/3 40/40/6 39/39/4
f 39/39/4 42/42/5 41/41/3
f 43/43/3 41/41/3 42/42/5
f 44/44/12 42/42/5 39/39/4
f 39/39/4 37/37/10 44/44/12
f 36/36/11 44/44/12 37/37/10
f 44/44/12 36/36/11 34/34/10
f 34/34/10 45/45/4 44/44/12
f 35/35/1 45/45/4 34/34/10
f 42/42/5 44/44/12 45/45/4
f 45/45/4 35/35/1 46/46/1
f 42/42/5 45/45/4 47/47/4
f 47/47/4 43/43/3 42/42/5
f 46/46/1 47/47/4 45/45/4
f 48/48/3 43/43/3 47/47/4
f 47/47/4 46/46/1 49/49/1
f 49/49/1 48/48/3 47/47/4
f 50/50/13 48/48/3 49/49/1
f 51/51/1 53/52/2 52/53/3
f 52/53/3 54/54/4 51/51/1
f 55/55/1 51/51/1 54/54/4
f 56/56/3 54/54/4 52/53/3
f 55/55/1 54/54/4 57/57/4
f 57/57/4 58/58/1 55/55/1
f 59/59/5 57/57/4 54/54/4
f 54/54/4 56/56/3 59/59/5
f 60/60/3 59/59/5 56/56/3
f 61/61/4 59/59/5 60/60/3
f 60/60/3 62/62/6 61/61/4
f 63/63/1 61/61/4 62/62/6
f 61/61/4 63/63/1 64/64/7
f 64/64/7 59/59/5 61/61/4
f 64/64/7 63/63/1 65/65/1
f 59/59/5 64/64/7 66/66/8
f 66/66/8 57/57/4 59/59/5
f 57/57/4 66/66/8 67/67/7
f 67/67/7 58/58/1 57/57/4
f 68/68/1 58/58/1 67/67/7
f 67/67/7 69/69/4 68/68/1
f 70/70/1 68/68/1 69/69/4
f 71/71/5 69/69/4 67/67/7
f 67/67/7 66/66/8 71/71/5
f 64/64/7 71/71/5 66/66/8
f 72/72/4 71/71/5 64/64/7
f 64/64/7 65/65/1 72/72/4
f 73/73/1 72/72/4 65/65/1
f 72/72/4 73/73/1 74/74/7
f 74/74/7 71/71/5 72/72/4
f 74/74/7 73/73/1 75/75/1
f 71/71/5 74/74/7 76/76/9
f 76/76/9 69/69/4 71/71/5
f 69/69/4 76/76/9 77/77/10
f 77/77/10 70/70/1 69/69/4
f 78/78/1 70/70/1 77/77/10
f 77/77/10 79/79/4 78/78/1
f 80/80/1 78/78/1 79/79/4
f 81/81/11 79/79/4 77/77/10
f 77/77/10 76/76/9 81/81/11
f 74/74/7 81/81/11 76/76/9
f 82/82/4 81/81/11 74/74/7
f 74/74/7 75/75/1 82/82/4
f 83/83/1 82/82/4 75/75/1
f 84/84/10 82/82/4 83/83/1
f 83/83/1 85/85/1 84/84/10
f 82/82/4 84/84/10 86/86/11
f 86/86/11 81/81/11 82/82/4
f 79/79/4 81/81/11 86/86/11
f 86/86/11 87/87/10 79/79/4
f 80/80/1 79/79/4 87/87/10
f 87/87/10 88/88/14 80/80/1
f 88/88/14 87/87/10 89/89/4
f 89/89/4 90/90/6 88/88/14
f 91/91/3 90/90/6 89/89/4
f 89/89/4 92/92/5 91/91/3
f 93/93/3 91/91/3 92/92/5
f 94/94/12 92/92/5 89/89/4
f 89/89/4 87/87/10 94/94/12
f 86/86/11 94/94/12 87/87/10
f 94/94/12 86/86/11 84/84/10
f 84/84/10 95/95/4 94/94/12
f 85/85/1 95/95/4 84/84/10
f 92/92/5 94/94/12 95/95/4
f 95/95/4 85/85/1 96/96/1
f 92/92/5 95/95/4 97/97/4
f 97/97/4 93/93/3 92/92/5
f 96/96/1 97/97/4 95/95/4
f 98/98/3 93/93/3 97/97/4
f 97/97/4 96/96/1 99/99/1
f 99/99/1 98/98/3 97/97/4
f 100/100/13 98/98/3 99/99/1
